<svg width="1300" height="315" viewBox="0 0 1300 315" fill="none" xmlns="http://www.w3.org/2000/svg">
<path opacity="0.1" d="M-307.718 14.1913L-309 81.7039C-309 81.7039 -119.86 56.0013 113.183 128.235C231.413 164.852 351.951 238.266 455.581 367.626C679.892 647.604 824.874 364.251 1024.97 235.989C1097.15 189.666 1177.56 163.283 1271.7 195.581C1502.58 274.827 1594.24 245.861 1632.9 216.91C1653 201.857 1658.77 186.805 1662.34 186.944L1663 151.758C1663 151.758 1637.89 292.587 1262.73 144.579C1099.48 80.2043 979.485 179.946 870.485 279.673C728.95 409.2 605.905 538.712 430.568 308.833C230.559 46.6423 -18.3096 0 -169.972 0C-253.631 0 -307.718 14.1913 -307.718 14.1913Z" fill="#EEF0EE"/>
</svg>
