<svg width="748" height="325" viewBox="0 0 748 325" fill="none" xmlns="http://www.w3.org/2000/svg">
<path opacity="0.1" d="M-610.718 14.1913L-612 81.7039C-612 81.7039 -422.86 56.0013 -189.817 128.235C-71.5867 164.852 48.9515 238.266 152.581 367.626C376.892 647.604 521.874 364.251 721.968 235.989C794.146 189.666 874.557 163.283 968.7 195.581C1199.58 274.827 1291.24 245.861 1329.9 216.91C1350 201.857 1355.77 186.805 1359.34 186.944L1360 151.758C1360 151.758 1334.89 292.587 959.725 144.579C796.482 80.2043 676.485 179.946 567.485 279.673C425.95 409.2 302.905 538.712 127.568 308.833C-72.4414 46.6423 -321.31 0 -472.972 0C-556.631 0 -610.718 14.1913 -610.718 14.1913Z" fill="#EEF0EE"/>
</svg>
